<?xml version="1.0" encoding="UTF-8" standalone="no"?>
<svg width="305px" height="74px" viewBox="0 0 305 74" version="1.1" xmlns="http://www.w3.org/2000/svg" xmlns:xlink="http://www.w3.org/1999/xlink" xmlns:sketch="http://www.bohemiancoding.com/sketch/ns">
    <!-- Generator: Sketch 3.4.4 (17249) - http://www.bohemiancoding.com/sketch -->
    <title>Imported Layers Copysvg</title>
    <desc>Created with Sketch.</desc>
    <defs></defs>
    <g id="Page-1" stroke="none" stroke-width="1" fill="none" fill-rule="evenodd" sketch:type="MSPage">
        <g id="Group" sketch:type="MSLayerGroup" transform="translate(-568.000000, 0.000000)">
            <g id="Imported-Layers-Copy" transform="translate(568.000000, 0.000000)" sketch:type="MSShapeGroup">
                <path d="M70.2190566,38.3490769 C69.3961321,38.3490769 68.9837107,37.9657949 68.9837107,37.2039744 L68.9837107,17.6006154 C68.9837107,16.8368974 69.3961321,16.4564615 70.2190566,16.4564615 L75.4663994,16.4564615 C79.4170126,16.4564615 82.0843239,16.9374615 83.4683333,17.8994615 C84.8523428,18.8605128 85.544827,20.3386154 85.544827,22.3328205 C85.544827,23.7283846 85.0269025,24.8070769 83.9929717,25.5707949 C82.9590409,26.3326154 81.9596384,26.7756667 80.9918868,26.8971026 L80.9918868,26.9435897 C81.9279874,27.0062051 83.0280975,27.4729744 84.2950943,28.348641 C85.560173,29.2243077 86.1931918,30.4604872 86.1931918,32.0581282 C86.1931918,33.9308974 85.4211006,35.4488462 83.8778774,36.6081795 C82.3346541,37.7675128 79.7881918,38.3490769 76.2384906,38.3490769 L70.2190566,38.3490769 L70.2190566,38.3490769 Z M73.4915723,25.3108462 L75.5124371,25.3108462 C76.8408176,25.3108462 78.0828774,25.0812564 79.2405346,24.6230256 C80.3981918,24.1657436 80.9755818,23.4542051 80.9755818,22.4855641 C80.9755818,21.7332308 80.6542767,21.1611538 80.0126258,20.7683846 C79.3680975,20.3775128 77.8680346,20.1801795 75.5124371,20.1801795 L73.4915723,20.1801795 L73.4915723,25.3108462 L73.4915723,25.3108462 Z M73.4915723,34.6225128 L75.744544,34.6225128 C77.9255818,34.6225128 79.4093396,34.4356154 80.1967767,34.0580256 C80.9842138,33.6823333 81.3774528,32.9176667 81.3774528,31.7687692 C81.3774528,30.6891282 80.9228302,29.9443846 80.0126258,29.5307436 C79.1014623,29.1199487 77.6781289,28.9140769 75.744544,28.9140769 L73.4915723,28.9140769 L73.4915723,34.6225128 L73.4915723,34.6225128 Z" id="Fill-1" fill="#000000"></path>
                <path d="M88.1603459,27.4027692 C88.1603459,23.8906154 89.0753459,21.1032821 90.906305,19.0360256 C92.736305,16.9697179 95.3518239,15.9375128 98.748066,15.9375128 C102.141431,15.9375128 104.755031,16.9697179 106.58695,19.0360256 C108.417909,21.1032821 109.333868,23.8906154 109.333868,27.4027692 C109.333868,30.9130256 108.417909,33.7022564 106.58695,35.7685641 C104.755031,37.8339231 102.141431,38.8670769 98.748066,38.8670769 C95.3518239,38.8670769 92.736305,37.8339231 90.906305,35.7685641 C89.0753459,33.7022564 88.1603459,30.9130256 88.1603459,27.4027692 M92.9741667,27.4027692 C92.9741667,29.9462821 93.434544,31.8930513 94.3543396,33.2411795 C95.2760535,34.5902564 96.7396698,35.2628974 98.748066,35.2628974 C100.752626,35.2628974 102.216242,34.5902564 103.137956,33.2411795 C104.058711,31.8930513 104.519088,29.9462821 104.519088,27.4027692 C104.519088,24.8583077 104.058711,22.9105897 103.137956,21.5624615 C102.216242,20.2133846 100.752626,19.5397949 98.748066,19.5397949 C96.7396698,19.5397949 95.2760535,20.2133846 94.3543396,21.5624615 C93.434544,22.9105897 92.9741667,24.8583077 92.9741667,27.4027692" id="Fill-2" fill="#000000"></path>
                <path d="M111.685629,27.4027692 C111.685629,23.8906154 112.601588,21.1032821 114.431588,19.0360256 C116.264465,16.9697179 118.878066,15.9375128 122.273349,15.9375128 C125.668632,15.9375128 128.282233,16.9697179 130.113192,19.0360256 C131.94511,21.1032821 132.861069,23.8906154 132.861069,27.4027692 C132.861069,30.9130256 131.94511,33.7022564 130.113192,35.7685641 C128.282233,37.8339231 125.668632,38.8670769 122.273349,38.8670769 C118.878066,38.8670769 116.264465,37.8339231 114.431588,35.7685641 C112.601588,33.7022564 111.685629,30.9130256 111.685629,27.4027692 M116.501368,27.4027692 C116.501368,29.9462821 116.960786,31.8930513 117.8825,33.2411795 C118.803255,34.5902564 120.266871,35.2628974 122.273349,35.2628974 C124.279827,35.2628974 125.742484,34.5902564 126.664198,33.2411795 C127.584953,31.8930513 128.04533,29.9462821 128.04533,27.4027692 C128.04533,24.8583077 127.584953,22.9105897 126.664198,21.5624615 C125.742484,20.2133846 124.279827,19.5397949 122.273349,19.5397949 C120.266871,19.5397949 118.803255,20.2133846 117.8825,21.5624615 C116.960786,22.9105897 116.501368,24.8583077 116.501368,27.4027692" id="Fill-3" fill="#000000"></path>
                <path d="M135.412327,37.2039744 L135.412327,17.6006154 C135.412327,16.8378462 135.771997,16.4564615 136.492296,16.4564615 L138.838302,16.4564615 C139.55956,16.4564615 139.91827,16.8387949 139.91827,17.6006154 L139.91827,23.6790513 C139.91827,24.2890769 139.892374,24.901 139.841541,25.5110256 L139.91827,25.5110256 L147.448318,17.3577436 C148.005566,16.7572051 148.48033,16.4564615 148.871651,16.4564615 L151.973443,16.4564615 C153.176179,16.4564615 153.372799,16.8957179 152.558506,17.7732821 L145.538711,25.3962308 L153.063962,37.037 C153.631761,37.9117179 153.436101,38.3490769 152.478899,38.3490769 L149.592909,38.3490769 C149.05772,38.3490769 148.594465,38.0502308 148.203145,37.4477949 L142.508852,28.6531795 L139.91827,31.4917436 L139.91827,37.1982821 C139.91827,37.9657949 139.55956,38.3490769 138.838302,38.3490769 L136.492296,38.3490769 C135.771997,38.3490769 135.412327,37.9667436 135.412327,37.2039744 Z" id="Fill-4" fill="#000000"></path>
                <path d="M157.273538,36.6992564 C156.72684,36.2116154 156.583931,35.7846923 156.841934,35.4165897 L157.643758,34.2705385 C157.922862,33.8730256 158.368852,33.9043333 158.987484,34.3625641 C159.799858,34.9631026 160.644843,35.4573846 161.526274,35.8435128 C162.405786,36.2315385 163.471368,36.4250769 164.727814,36.4250769 C165.654324,36.4250769 166.436006,36.2884615 167.072862,36.0133333 C167.710676,35.7372564 168.222846,35.3425897 168.609371,34.8293333 C168.994937,34.3141795 169.18772,33.6899231 169.18772,32.9556154 C169.18772,32.4271795 169.109072,31.9347949 168.948899,31.4813077 C168.789686,31.0278205 168.535519,30.6492821 168.18544,30.3428462 C167.834403,30.037359 167.468978,29.7973333 167.090126,29.6237179 C166.460943,29.3457436 165.523884,29.0231795 164.272233,28.6541282 C163.0225,28.2869744 161.929104,27.8885128 160.992044,27.4615897 C160.066494,27.0175897 159.328931,26.4825128 158.779355,25.8544615 C158.227862,25.2264103 157.862437,24.5793846 157.684041,23.9143333 C157.500849,23.2502308 157.410692,22.4950513 157.410692,21.651641 C157.410692,20.3613846 157.793381,19.2485385 158.554921,18.3140513 C159.317421,17.3805128 160.249686,16.761 161.35555,16.4555128 C162.462374,16.1509744 163.586462,15.9991795 164.727814,15.9991795 C166.034135,15.9991795 167.171651,16.1652051 168.138443,16.4991538 C169.105236,16.8331026 169.970362,17.2676154 170.730943,17.803641 C171.265173,18.1783846 171.388899,18.574 171.102123,18.9904872 L170.314686,20.1071282 C170.077783,20.4429744 169.615487,20.3718205 168.925881,19.8936667 C168.401242,19.5255641 167.76055,19.1821282 167.004764,18.8624103 C166.248019,18.5407949 165.498947,18.3804615 164.759465,18.3804615 C163.810896,18.3804615 163.024418,18.4905128 162.397154,18.7096667 C161.768931,18.9278718 161.275943,19.2969231 160.915314,19.8168205 C160.554686,20.3357692 160.37533,20.9372564 160.37533,21.6193846 C160.37533,22.0472564 160.416572,22.4419231 160.499057,22.8043333 C160.5825,23.1648462 160.792547,23.5338974 161.131116,23.9114872 C161.471604,24.2881282 161.884025,24.5784359 162.367421,24.7824103 C163.013868,25.0565897 164.020943,25.3810513 165.384811,25.752 C166.746761,26.1248462 167.937028,26.5802308 168.956572,27.1200513 C169.902264,27.6190769 170.586116,28.1408718 171.001415,28.6863846 C171.418632,29.2309487 171.742814,29.822 171.974921,30.4585897 C172.204151,31.0951795 172.321164,31.8105128 172.321164,32.6055385 C172.321164,34.0504359 171.946148,35.2572051 171.195157,36.2248974 C170.442248,37.1925897 169.552186,37.8642821 168.524969,38.2409231 C167.496792,38.6185128 166.204858,38.8073077 164.649167,38.8073077 C162.788475,38.8073077 161.246211,38.5928974 160.021415,38.1659744 C158.796619,37.7371538 157.88066,37.2495128 157.273538,36.6992564" id="Fill-5" fill="#000000"></path>
                <path d="M174.450409,27.4027692 C174.450409,23.8393846 175.34239,21.0492051 177.125393,19.0284359 C178.911274,17.0076667 181.476918,15.9982308 184.821368,15.9982308 C186.776053,15.9982308 188.391211,16.3264872 189.667799,16.9820513 C190.943428,17.6385641 191.858428,18.5379487 192.412799,19.677359 C192.702453,20.2674615 192.655456,20.6744615 192.276604,20.8993077 L191.055645,21.601359 C190.644182,21.8347436 190.278758,21.6421538 189.96033,21.0197949 C189.619843,20.3794103 189.065472,19.7788718 188.29434,19.2200769 C187.522248,18.6603333 186.416384,18.3804615 184.975786,18.3804615 C182.402469,18.3804615 180.533145,19.1707436 179.364937,20.7541538 C178.19673,22.3366154 177.611667,24.5528205 177.611667,27.4027692 C177.611667,30.2517692 178.19673,32.4670256 179.364937,34.0494872 C180.533145,35.6338462 182.402469,36.4241282 184.975786,36.4241282 C186.457626,36.4241282 187.642138,36.0882821 188.531242,35.4165897 C189.423223,34.7448974 190.067752,34.0428462 190.469623,33.3104359 C190.789009,32.7193846 191.15827,32.5419744 191.581242,32.775359 L192.862626,33.4935385 C193.232846,33.7079487 193.263538,34.114 192.954701,34.7145385 C192.347579,35.8852564 191.359686,36.8595897 189.991981,37.6384872 C188.621399,38.4173846 186.898821,38.8073077 184.821368,38.8073077 C181.476918,38.8073077 178.911274,37.7969231 177.125393,35.7752051 C175.34239,33.7553846 174.450409,30.9642564 174.450409,27.4027692" id="Fill-6" fill="#000000"></path>
                <path d="M196.721164,38.3490769 C196.208035,38.3490769 195.950991,38.0692051 195.950991,37.5085128 L195.950991,17.2970256 C195.950991,16.7363333 196.208035,16.4564615 196.721164,16.4564615 L204.176399,16.4564615 C207.150629,16.4564615 209.302893,17.0067179 210.637028,18.1043846 C211.966368,19.2058462 212.633915,20.6545385 212.633915,22.4561538 C212.633915,24.043359 212.077626,25.3763077 210.96217,26.4559487 C209.847673,27.5355897 208.297736,28.1560513 206.312358,28.3192308 L206.312358,28.348641 C207.361635,29.1227949 208.057956,29.7091026 208.396525,30.1123077 C208.736053,30.5145641 209.114906,31.0562821 209.538836,31.7384103 L212.838208,37.339641 C213.237201,38.0113333 213.164308,38.3490769 212.61761,38.3490769 L211.032186,38.3490769 C210.597704,38.3490769 210.263931,38.1498462 210.026069,37.7532821 L206.816855,32.3028974 C206.352642,31.5202051 205.688931,30.7517436 204.825723,29.9975128 C203.959638,29.2461282 202.884465,28.8675897 201.598286,28.8675897 L198.912752,28.8675897 L198.912752,37.5085128 C198.912752,38.0692051 198.655708,38.3490769 198.142579,38.3490769 L196.721164,38.3490769 L196.721164,38.3490769 Z M198.912752,26.3648718 L203.373616,26.3648718 C205.381053,26.3648718 206.924277,26.1030256 208.005204,25.5783846 C209.083255,25.0546923 209.624198,23.9522821 209.624198,22.2730513 C209.624198,20.9903846 209.130252,20.1185128 208.143318,19.6555385 C207.154465,19.1916154 205.813616,18.9610769 204.115975,18.9610769 L198.912752,18.9610769 L198.912752,26.3648718 L198.912752,26.3648718 Z" id="Fill-7" fill="#000000"></path>
                <path d="M218.235173,38.3490769 C217.721085,38.3490769 217.465959,38.0692051 217.465959,37.5085128 L217.465959,17.2970256 C217.465959,16.7363333 217.721085,16.4564615 218.235173,16.4564615 L219.656588,16.4564615 C220.172594,16.4564615 220.42772,16.7363333 220.42772,17.2970256 L220.42772,37.5085128 C220.42772,38.0692051 220.172594,38.3490769 219.656588,38.3490769 L218.235173,38.3490769" id="Fill-8" fill="#000000"></path>
                <path d="M226.447154,38.3490769 C225.931148,38.3490769 225.674104,38.0692051 225.674104,37.5085128 L225.674104,17.2970256 C225.674104,16.7363333 225.931148,16.4574103 226.447154,16.4574103 L232.927925,16.4574103 C236.426792,16.4574103 238.788145,17.0399231 240.013899,18.204 C241.236777,19.3699744 241.849654,20.9704615 241.849654,23.0045128 C241.849654,25.0404615 241.236777,26.6428462 240.013899,27.8069231 C238.788145,28.9719487 236.426792,29.556359 232.927925,29.556359 L228.637783,29.556359 L228.637783,37.5085128 C228.637783,38.0692051 228.380739,38.3490769 227.866651,38.3490769 L226.447154,38.3490769 L226.447154,38.3490769 Z M228.637783,27.0517436 L232.975881,27.0517436 C235.239403,27.0517436 236.780708,26.7339231 237.60555,26.0973333 C238.429434,25.4607436 238.840896,24.4304359 238.840896,23.0045128 C238.840896,21.5814359 238.429434,20.5511282 237.60555,19.9145385 C236.780708,19.2779487 235.239403,18.9610769 232.975881,18.9610769 L228.637783,18.9610769 L228.637783,27.0517436 L228.637783,27.0517436 Z" id="Fill-9" fill="#000000"></path>
                <path d="M244.674261,19.0815641 C244.08728,19.0815641 243.794748,18.8519744 243.794748,18.3937436 L243.794748,17.1433333 C243.794748,16.6851026 244.085362,16.4564615 244.670425,16.4564615 L261.501053,16.4564615 C262.084198,16.4564615 262.377689,16.6851026 262.377689,17.1433333 L262.377689,18.3937436 C262.377689,18.8519744 262.083239,19.0815641 261.497217,19.0815641 L254.567579,19.0815641 L254.567579,37.5075641 C254.567579,38.0692051 254.307657,38.3490769 253.796447,38.3490769 L252.375991,38.3490769 C251.860943,38.3490769 251.603899,38.0692051 251.603899,37.5075641 L251.603899,19.0815641 L244.674261,19.0815641" id="Fill-10" fill="#000000"></path>
                <path d="M263.799104,27.4027692 C263.799104,23.8393846 264.684371,21.0492051 266.458742,19.0284359 C268.234072,17.0076667 270.795881,15.9982308 274.138412,15.9982308 C277.481903,15.9982308 280.038915,17.0076667 281.815204,19.0284359 C283.590535,21.0492051 284.47772,23.8393846 284.47772,27.4027692 C284.47772,30.9642564 283.590535,33.7553846 281.815204,35.7752051 C280.038915,37.7969231 277.481903,38.8073077 274.138412,38.8073077 C270.795881,38.8073077 268.234072,37.7969231 266.458742,35.7752051 C264.684371,33.7553846 263.799104,30.9642564 263.799104,27.4027692 M266.961321,27.4027692 C266.961321,30.2517692 267.552138,32.4670256 268.734733,34.0494872 C269.919245,35.6338462 271.721431,36.4241282 274.138412,36.4241282 C276.555393,36.4241282 278.357579,35.6338462 279.538255,34.0494872 C280.723726,32.4670256 281.314544,30.2517692 281.314544,27.4027692 C281.314544,24.5528205 280.723726,22.3366154 279.538255,20.7541538 C278.357579,19.1707436 276.555393,18.3804615 274.138412,18.3804615 C271.721431,18.3804615 269.919245,19.1707436 268.734733,20.7541538 C267.552138,22.3366154 266.961321,24.5528205 266.961321,27.4027692" id="Fill-11" fill="#000000"></path>
                <path d="M288.623035,38.3490769 C288.107028,38.3490769 287.852862,38.0692051 287.852862,37.5085128 L287.852862,17.2970256 C287.852862,16.7363333 288.107028,16.4564615 288.623035,16.4564615 L296.07827,16.4564615 C299.049623,16.4564615 301.202846,17.0067179 302.536981,18.1043846 C303.86728,19.2058462 304.534827,20.6545385 304.534827,22.4561538 C304.534827,24.043359 303.977579,25.3763077 302.863082,26.4559487 C301.747626,27.5355897 300.19673,28.1560513 298.21423,28.3192308 L298.21423,28.348641 C299.262547,29.1227949 299.958868,29.7091026 300.295519,30.1123077 C300.636006,30.5145641 301.016777,31.0562821 301.438789,31.7384103 L304.737201,37.339641 C305.136195,38.0113333 305.063302,38.3490769 304.516604,38.3490769 L302.933097,38.3490769 C302.500535,38.3490769 302.161965,38.1498462 301.925063,37.7532821 L298.713931,32.3028974 C298.253553,31.5202051 297.588884,30.7517436 296.725676,29.9975128 C295.861509,29.2461282 294.787296,28.8675897 293.500157,28.8675897 L290.814623,28.8675897 L290.814623,37.5085128 C290.814623,38.0692051 290.556619,38.3490769 290.041572,38.3490769 L288.623035,38.3490769 L288.623035,38.3490769 Z M290.814623,26.3648718 L295.27261,26.3648718 C297.280047,26.3648718 298.825189,26.1030256 299.905157,25.5783846 C300.985126,25.0546923 301.523192,23.9522821 301.523192,22.2730513 C301.523192,20.9903846 301.030204,20.1185128 300.04327,19.6555385 C299.054418,19.1916154 297.71261,18.9610769 296.015928,18.9610769 L290.814623,18.9610769 L290.814623,26.3648718 L290.814623,26.3648718 Z" id="Fill-12" fill="#000000"></path>
                <path d="M50.4448899,1.20107692 C42.1935849,2.55110256 34.7728774,5.04053846 29.0843396,8.32120513 L29.0843396,8.31930769 C29.0843396,8.31930769 25.1490723,10.3372308 21.3461635,13.9945385 C17.2938836,17.8909231 17.2919654,23.3498462 17.2919654,23.3498462 C17.2919654,23.3498462 17.2814151,39.7512821 17.2814151,39.7560256 C17.2699057,40.3897692 16.9783333,41.0861282 16.6253774,41.6344872 C16.1103302,42.4333077 16.1678774,42.9465641 17.1490566,43.0347949 C17.866478,43.0993077 18.3767296,43.0993077 18.5848585,43.0993077 L35.2495597,43.0993077 C36.2575943,43.0898205 37.3893553,43.0651538 37.402783,41.6392308 C37.4401887,37.881359 37.4334748,34.120641 37.4382704,30.3608718 C37.4401887,29.3514359 36.9203459,28.8353333 35.8950472,28.7622821 C34.633805,28.6740513 33.373522,28.5583077 32.1161164,28.4254872 C30.0118082,28.1996923 28.6517767,27.904641 28.5069497,26.2178205 C30.428066,25.9626154 30.8107547,26.0868974 32.2954717,25.5916667 C36.6575472,24.1391795 36.5002516,20.7864103 36.2096384,18.7798718 C35.9430031,16.9488462 34.4151258,15.1358462 32.7788679,13.6065128 C31.2893553,14.4262051 30.2314465,15.163359 29.0565252,16.2287692 C30.0683962,17.0930513 31.0841038,18.5265641 31.0841038,20.3955385 C31.0841038,22.9371538 29.8535535,25.0319231 26.1033962,24.8839231 C26.1033962,28.4985385 27.674434,29.1047692 30.3110535,30.2005385 C30.8539151,30.4272821 31.0572484,31.1530513 31.0572484,31.6530256 C31.0572484,34.5333333 31.0486164,36.9762821 31.0466981,39.6402821 C31.0466981,41.0054872 30.3225629,41.6268974 28.9625314,41.6107692 C27.5497484,41.594641 25.2938994,41.6069744 23.9079717,41.6069744 C23.9079717,41.6069744 23.8878302,23.4959487 23.8878302,21.268359 C24.0096384,16.8093846 28.4254245,13.5002564 30.1527987,12.3893077 C34.9886792,9.38851282 41.4349214,7.03189744 48.7366981,5.60502564 L48.7366981,46.1238205 C40.2590409,47.693 32.7481761,50.4765385 27.2284434,54.0797692 L27.2207704,54.0693333 L26.8658962,54.3178974 C21.3221855,50.5979744 13.6645755,47.7271538 5.00468553,46.1200256 L5.00468553,5.60502564 C11.1852516,6.7074359 16.9179088,8.92458974 21.0833648,10.8893846 C22.0300157,9.99 23.6240723,8.82876923 24.6023742,8.12861538 C19.1545755,5.28435897 11.4259906,2.52453846 3.29553459,1.20107692 L0.926509434,0.812102564 L0.926509434,49.5202308 L2.63278302,49.802 C10.9464308,51.1681538 18.3067138,53.717359 23.6662736,57.0644359 C23.5914623,57.1479231 23.5137736,57.2285641 23.4389623,57.3148974 C21.8928616,59.1117692 21.0411635,61.4712308 21.0411635,63.9616154 C21.0411635,66.4510513 21.8928616,68.8124103 23.4389623,70.6083333 C24.4057547,71.7306667 25.5758805,72.5664872 26.8716509,73.0797436 C28.1674214,72.5664872 29.3375472,71.7306667 30.3033805,70.6083333 C31.8513994,68.8124103 32.7030975,66.4510513 32.7030975,63.9616154 C32.7030975,61.4712308 31.8513994,59.1117692 30.3033805,57.3148974 C30.2285692,57.2276154 30.1508805,57.1469744 30.0741509,57.0634872 C35.4308333,53.7183077 42.7939937,51.1681538 51.1095597,49.8057949 L52.8167925,49.5259231 L52.8167925,0.812102564 L50.4448899,1.20107692 L50.4448899,1.20107692 Z M26.8716509,68.3978205 C25.7274214,67.185359 24.9812264,65.9814359 24.9812264,63.9616154 C24.9812264,61.9493846 25.7216667,60.5414872 26.8591824,59.3347179 L26.8716509,59.3423077 L26.8841195,59.3347179 C28.0206761,60.5414872 28.7611164,61.9493846 28.7611164,63.9616154 C28.7611164,65.9814359 28.0158805,67.185359 26.8716509,68.3978205 L26.8716509,68.3978205 Z" id="Fill-13" fill="#DB2128"></path>
            </g>
        </g>
    </g>
</svg>